<?xml version="1.0" standalone="no"?>
<!DOCTYPE svg PUBLIC "-//W3C//DTD SVG 20010904//EN"
 "http://www.w3.org/TR/2001/REC-SVG-20010904/DTD/svg10.dtd">
<svg version="1.0" xmlns="http://www.w3.org/2000/svg"
 width="598.000000pt" height="599.000000pt" viewBox="0 0 598.000000 599.000000"
 preserveAspectRatio="xMidYMid meet">

<g transform="translate(0.000000,599.000000) scale(0.100000,-0.100000)"
fill="#000000" stroke="none">
<path d="M4883 5587 c-161 -94 -291 -173 -288 -175 4 -4 564 313 579 329 33
32 -32 -3 -291 -154z"/>
<path d="M5320 4973 c-231 -135 -225 -131 -219 -136 4 -4 442 243 456 256 3 4
0 7 -8 6 -8 0 -111 -57 -229 -126z"/>
<path d="M2199 4139 c45 -90 46 -92 46 -187 -1 -113 -20 -174 -91 -279 -24
-36 -44 -68 -44 -70 0 -2 23 -3 52 -1 51 3 53 4 95 63 56 79 100 186 110 266
l8 64 42 -44 c49 -49 99 -147 108 -206 l5 -40 -14 36 c-24 61 -47 103 -74 132
l-26 28 -13 -76 c-7 -42 -26 -109 -42 -150 l-29 -75 169 0 169 0 0 53 c-1 186
-121 383 -298 485 -63 37 -189 92 -210 92 -5 0 11 -41 37 -91z"/>
<path d="M1830 522 c0 -15 374 -223 427 -238 39 -11 78 -15 127 -12 70 5 156
32 156 49 0 5 -24 -1 -52 -13 -39 -16 -75 -22 -133 -22 -95 -1 -123 11 -367
151 -87 50 -158 88 -158 85z"/>
</g>
</svg>
